# xmcd
#
# Track frame offsets:
#	150
#	12175
#	28750
#	42700
#	54787
#	68725
#	81562
#	95712
#	108650
#	122087
#	136500
#	150600
#	164387
#	179250
#	195212
#	208987
#	223275
#	235887
#
# Disc length: 3318 seconds
#
# Revision: 0
# Processed by: cddbd v1.4PL0 Copyright (c) Steve Scherf et al.
# Submitted via: dBpowerAMP V4.0
#
DISCID=000cf412
DTITLE=Tampa Red - (1928-1942) It's Tight Like That
DYEAR=1900
DGENRE=Blues
TTITLE0=(Honey) It's Tight Like That
TTITLE1=Big Fat Mama
TTITLE2=Juicy Lemon Blues
TTITLE3=Uncle Bud
TTITLE4=How Long, How Long Blues
TTITLE5=It's Tight Like That
TTITLE6=Kunjine Baby
TTITLE7=Friendless Gal Blues
TTITLE8=Death Cell Blues
TTITLE9=Have Ever Been Worried In Mind - Part 1
TTITLE10=Have Ever Been Worried In Mind - Part 2
TTITLE11=You Rascal You
TTITLE12=Boogie Woogie Dance
TTITLE13=Bumble Bee Blues
TTITLE14=Stop And Listen Blues
TTITLE15=Down In Spirit Blues
TTITLE16=Mean Old Tom Cat Blues
TTITLE17=Don't Jive It Mama
EXTD=
EXTT0=
EXTT1=
EXTT2=
EXTT3=
EXTT4=
EXTT5=
EXTT6=
EXTT7=
EXTT8=
EXTT9=
EXTT10=
EXTT11=
EXTT12=
EXTT13=
EXTT14=
EXTT15=
EXTT16=
EXTT17=
PLAYORDER=
